<svg xmlns:xlink="http://www.w3.org/1999/xlink" xmlns="http://www.w3.org/2000/svg" version="1.1" style="display: block;" viewBox="0 0 1660 1248" width="415" height="312" preserveAspectRatio="none"><defs><linearGradient id="Gradient1" gradientUnits="userSpaceOnUse" x1="1221.46" y1="693.307" x2="1222.7" y2="700.684"><stop class="stop0" offset="0" stop-opacity="1" stop-color="rgb(197,198,205)"/><stop class="stop1" offset="1" stop-opacity="1" stop-color="rgb(243,243,248)"/></linearGradient><linearGradient id="Gradient2" gradientUnits="userSpaceOnUse" x1="1409.69" y1="838.598" x2="1429.3" y2="838.392"><stop class="stop0" offset="0" stop-opacity="1" stop-color="rgb(208,215,208)"/><stop class="stop1" offset="1" stop-opacity="1" stop-color="rgb(255,255,255)"/></linearGradient></defs><path transform="translate(0,0)" fill="rgb(0,0,0)" d="M 750.294 108.916 C 768.392 35.9739 910.218 47.7474 953.794 88.0502 C 956.767 90.7992 973.458 105.189 974.582 104.789 C 974.159 100.82 973.411 100.627 975.314 97.9864 C 1034.45 92.6885 1103.38 94.7267 1137.09 152.394 C 1166.09 147.953 1201.51 150.751 1226.2 168.226 C 1243.49 180.46 1249.95 196.872 1254.8 216.651 L 1255.6 221.311 L 1256.7 221.612 C 1297.74 215.445 1331.35 244.564 1355.98 273.213 C 1407.3 288.519 1441 320.882 1448.74 375.28 L 1450.76 375.203 C 1452.89 374.039 1453.64 373.41 1456.3 374.587 C 1502.18 394.879 1513.07 453.561 1505.77 499.193 C 1519.98 525.3 1530.46 557.521 1521.78 587.235 C 1517.29 602.591 1508.91 612.208 1497.93 623.062 C 1496.75 620.907 1492.2 611.294 1491.14 610.486 C 1490.29 615.174 1493 624.521 1493.15 630.203 C 1494.28 659.37 1485.79 688.879 1460.13 705.742 C 1446.23 714.876 1427.44 721.418 1411.33 725.908 C 1356.64 741.155 1210.31 791.171 1189.36 708.299 L 1189.55 704.434 C 1187.44 702.544 1185.08 703.102 1181.6 702.896 C 1155.06 703.241 1132.55 703.621 1106.2 698.283 C 1091.28 695.261 1076.8 690.716 1062.18 687.545 C 1063.98 689.472 1065.36 690.733 1066.61 693.094 C 1065.44 696.054 1063.93 697.115 1061.63 699.315 C 1063.55 700.022 1063.18 699.595 1064.75 699.635 C 1104.38 700.644 1145.15 712.17 1185.18 709.696 C 1206.62 769.837 1149.42 801.953 1101.6 818.639 C 1072.18 828.672 1041.9 835.979 1011.14 840.467 C 1003.7 894.735 1017.5 940.902 1078.69 947.127 C 1093.22 948.605 1109.03 961.929 1121.24 970.032 C 1144.23 985.388 1170.41 995.323 1197.8 999.087 C 1236.73 1004.38 1275.69 990.438 1305.58 966.19 C 1323.26 951.851 1342.98 937.753 1352.96 916.983 C 1345.41 917.286 1319.24 916.535 1319.5 906.617 C 1327.14 897.403 1349.91 903.136 1358.78 910.176 C 1397.51 897.457 1407.61 860.345 1414.89 824.271 C 1408.09 827.014 1389.62 835.462 1383.49 834.431 L 1382.57 833.125 C 1382.87 831.567 1382.72 830.559 1384.55 829.857 C 1426.89 813.614 1444.83 779.6 1429.41 735.655 C 1428.74 733.737 1429.49 732.402 1430.94 731.296 C 1433.01 731.771 1434.53 732.108 1435.68 734.391 C 1446.26 755.283 1444.28 787.494 1439.45 808.337 C 1422.65 882.063 1377.33 946.134 1313.41 986.539 C 1294.97 998.252 1274.93 1007.23 1253.9 1013.18 C 1238.66 1017.49 1223.99 1018.36 1210.73 1022 C 1178.39 1030.88 1153.5 1056.75 1145.87 1089.4 C 1141.67 1107.16 1142.31 1117.52 1146.9 1135.25 C 1148.87 1142.89 1159.78 1159.08 1158.2 1165.33 C 1156.07 1165.18 1153.68 1162.98 1152.45 1161.4 C 1140.94 1146.65 1135.93 1120.19 1137.53 1102.25 C 1139.67 1075.9 1152.43 1051.56 1172.87 1034.8 C 1190.58 1020.16 1207.97 1015.14 1230.38 1011.67 C 1299.26 1001 1355.58 954.885 1394.14 898.977 L 1391.54 897.007 C 1382.9 906.785 1372.46 913.022 1359.86 916.209 C 1351.43 939.919 1325.51 957.752 1306.79 973.004 C 1250.71 1018.69 1176.54 1014.63 1118.13 975.539 C 1099.24 962.896 1090.96 954.499 1067.81 951.158 C 1006.81 942.35 997.495 886.349 1005.21 835.3 C 1056.4 827.135 1194.25 802.688 1183.24 723.88 C 1182.97 721.952 1182.03 718.722 1181.53 716.749 C 1141.9 717.817 1103.4 706.778 1064.21 705.437 C 1055.1 705.125 1031.79 732.441 1026.75 733.327 C 1017.14 723.356 1050.49 698.301 1057.3 692.899 C 1051.59 689.234 1030.56 677.022 1029.1 671.113 C 1032.26 668.78 1034.92 670.268 1038.34 671.655 C 1122.72 705.856 1222.92 710.11 1300.6 656.73 C 1307.1 652.265 1319.96 640.585 1327.27 639.169 L 1327.91 640.319 C 1327.33 641.528 1326.67 642.699 1325.94 643.825 C 1321.37 650.89 1313.92 658.002 1307.65 663.581 C 1274.83 692.81 1239.07 705.324 1196.88 713.965 C 1202.5 724.006 1205.56 730.167 1215.58 736.9 C 1242.1 754.722 1299.22 747.603 1328.42 741.499 C 1358.18 735.277 1429.68 717.28 1454.44 701.883 C 1462.36 696.988 1469.1 690.405 1474.18 682.602 C 1504.06 637.227 1471.32 577.216 1477.14 568.295 L 1479.4 568.41 C 1487.04 572.532 1497.13 603.592 1500.05 613.056 C 1506.09 605.11 1511.6 597.839 1514.9 587.94 C 1524.81 558.269 1513.69 524.705 1498.22 498.974 C 1492.27 489.069 1483.5 478.967 1477.97 468.654 C 1476.37 465.685 1476.78 465.286 1477.62 462.885 L 1479.66 462.164 C 1485.58 464.648 1496.47 483.268 1500.53 489.476 C 1502.06 445.749 1498.96 407.947 1458.11 382.333 C 1461.26 422.253 1446.08 444.136 1406.45 419.414 C 1410.37 431.4 1412.48 443.905 1412.7 456.514 C 1413.12 479.834 1406.99 497.766 1390.75 514.632 C 1403.36 520.543 1415.82 529.838 1420.41 543.444 C 1422.88 550.747 1430.06 574.742 1420.25 577.826 C 1416.78 574.908 1418.39 575.016 1416.47 570.16 C 1409.1 551.567 1394.87 523.812 1371.92 523.611 C 1367.03 523.568 1358.85 526.763 1354.8 524.768 C 1359.95 517.471 1374.9 509.665 1381.78 500.894 C 1405.39 470.805 1397.27 434.127 1383.92 401.832 C 1381.55 396.123 1373.51 386.206 1375.43 380.698 C 1383.31 380.185 1412.7 411.437 1430.74 413.344 C 1433.92 413.68 1436.84 413.276 1439.3 411.084 C 1443.08 407.719 1444.14 401.603 1444.54 396.797 C 1446.84 369.702 1434.07 337.425 1416.87 316.883 C 1405.39 303.172 1391.05 292.357 1374.15 286.281 C 1366.81 283.642 1358.76 281.59 1352.17 277.366 C 1345.84 273.302 1340.82 265.198 1335.47 259.843 C 1314.26 238.622 1291.76 229.762 1262.29 227.099 C 1257.44 248.967 1247.48 259.704 1229.82 272.198 C 1231.58 272.519 1233.33 272.904 1235.07 273.353 C 1252.12 277.725 1263.06 287.619 1271.91 302.568 C 1291.05 299.554 1312.59 299.175 1326.41 315.624 C 1330.29 320.242 1336.42 336.138 1335.79 342.181 L 1334.91 342.564 C 1326.27 339.735 1321.41 324.271 1307.96 318.868 C 1292.2 312.542 1280.59 315.691 1265.35 321.27 C 1259.66 309.49 1250.98 295.549 1238.07 290.951 C 1233.63 289.415 1228.99 288.559 1224.29 288.414 C 1213.72 288.069 1201.81 290.705 1191.8 290.748 C 1168.42 290.848 1147.93 289.348 1127.81 303.941 C 1126.26 305.066 1125.15 305.055 1123.46 304.422 C 1121.83 294.459 1141.73 281.51 1150.08 280.219 C 1182.64 275.183 1213.95 272.321 1237.86 246.349 C 1257.4 225.127 1245.2 191.454 1224.9 175.247 C 1199.46 154.936 1163.59 155.523 1132.97 158.746 C 1125.82 141.854 1108.89 127.014 1092.86 118.542 C 1058.26 100.248 1019.88 100.105 981.812 102.999 C 983.513 107.643 993.673 131.743 992.184 135.009 C 986.065 133.164 967.723 107.362 959.773 100.543 C 911.105 58.7978 832.264 47.7006 776.372 80.9554 C 752.669 95.0581 748.321 130.019 764.092 151.41 C 770.89 160.958 780.629 164.52 786.856 172.548 L 786.154 173.795 C 776.402 176.746 763.55 166.086 757.237 159.622 C 741.247 143.25 739.997 130.199 740.082 108.666 C 667.723 82.3312 600.536 89.3549 540.903 140.482 C 481.841 134.165 442.871 148.586 397.593 187.703 C 388.588 195.483 379.104 209.406 369.369 215.279 C 366.77 216.847 353.037 220.703 349.115 222.407 C 312.416 238.351 290.961 267.274 275.192 301.876 C 281.829 299.732 312.575 287.149 316.721 290.971 C 313.22 297.506 300.578 299.621 294.007 302.987 C 244.126 328.537 209.534 366.414 191.973 420.06 C 187.801 427.97 187.387 447.817 183.314 454.661 C 175.381 467.992 163.999 479.462 159.494 495.476 C 153.258 517.64 151.868 544.348 161.839 565.645 C 165.974 574.478 177.966 580.922 178.41 587.91 C 166.355 590.015 130.421 532.353 124.415 628.214 C 120.62 688.787 136.947 740.92 194.6 770.061 C 197.293 768.823 200.093 767.835 202.966 767.109 C 213.35 764.42 243.031 760.543 245.443 774.764 C 240.871 788.368 208.558 781.11 197.847 778.504 C 251.413 849.117 310.39 860.178 396.107 855.722 C 360.125 817.887 334.246 759.61 324.806 708.536 C 267.42 673.667 222.608 618.95 252.469 549.772 C 263.173 524.974 286.449 496.397 309.3 481.954 C 323.974 472.679 329.11 470.755 340.682 457.898 C 347.196 450.662 369.396 407.923 372.081 406.862 C 374.086 409.165 373.47 408.854 373.589 412.675 C 374.346 437.124 356.97 460.085 340.657 476.947 C 351.842 476.698 389.981 478.422 396.402 488.451 L 395.599 490.347 C 390.369 491.819 369.632 488.856 356.822 491.136 C 330.566 495.773 298.742 505.886 282.628 528.614 C 233.763 597.532 271.569 652.266 330.124 694.305 C 354.416 645.347 439.781 685.721 481.985 683.811 C 489.962 683.39 497.777 681.391 504.978 677.932 C 522.752 669.524 535.961 651.25 542.195 632.884 C 553.073 600.832 524.96 507.394 511.195 475.572 C 507.023 465.928 499.839 457.712 495.265 448.257 C 480.491 417.716 494.972 359.346 505.605 329.268 C 464.788 280.152 378.713 337.463 364.73 332.258 C 364.575 331.036 364.267 330.358 365.393 329.407 C 407.561 293.779 471.513 281.157 516.35 317.849 C 530.983 296.4 546.299 281.902 571.697 273.052 C 581.545 269.62 601.565 266.066 612.507 269.032 C 613.78 269.377 613.558 270.287 613.917 271.992 C 611.289 275.28 602.549 275.257 597.987 276.359 C 573.865 282.184 552.74 296.841 537.727 316.699 C 513.402 348.876 497.527 398.802 508.671 438.758 C 512.239 451.551 527.222 468.273 530.295 482.463 C 542.85 518.705 556.64 563.327 561.794 601.257 C 588.763 559.38 625.354 553.467 672.017 552.82 C 651.21 520.788 641.828 481.984 635.253 442.698 C 619.767 350.164 670.519 236.618 768.825 216.74 C 771.755 216.148 782.232 215.575 784.653 217.519 C 781.969 221.164 751.678 229.969 742.887 235.838 C 627.964 312.563 632.767 449.951 695.418 556.487 C 725.125 552.505 758.737 541.804 786.79 531.556 C 798.364 527.328 810.24 521.809 821.907 518.31 L 822.665 515.395 C 806.46 508.934 785.832 478.279 779.016 461.87 C 765.213 428.642 765.554 397.415 768.941 362.178 C 770.166 349.431 770.319 335.194 775.631 323.419 C 797.054 275.936 855.146 237.102 897.802 211.697 C 898.321 197.504 899.173 188.049 889.209 176.302 C 878.275 163.413 857.481 164.537 847.255 159.098 C 849.654 151.506 878.417 156.244 884.838 158.796 C 904.19 166.486 912.563 181.813 916.956 200.926 C 994.591 188.524 1082.25 198.52 1097.4 288.467 C 1097.82 291.005 1097.87 292.741 1097.21 295.253 C 1095.01 297.911 1095.43 298.109 1091.8 298.45 C 1085.93 299 1060.28 291.33 1056.43 293.555 C 1057.45 295.225 1062.62 296.354 1064.75 296.63 C 1125.52 304.506 1132.86 361.911 1101.5 408.816 C 1130.31 401.48 1173.53 399.322 1199.63 416.077 C 1282.06 469.323 1225.11 620.258 1143.77 642.438 C 1105.36 652.911 1037.6 629.632 997.217 622.711 C 928.749 610.976 811.752 586.584 784.962 676.322 C 794.139 676.502 807.226 676.498 816.063 677.672 C 850.844 682.35 882.987 698.76 907.175 724.187 C 912.19 729.4 923.032 741.656 924.171 748.445 L 923.219 749.771 C 917.85 749.43 904.833 736.772 900.075 732.675 C 849.091 688.767 781.846 671.995 725.313 721.929 C 720.846 725.827 716.559 729.926 712.466 734.215 C 667.607 730.298 640.897 750.422 611.94 782.63 C 607.285 787.808 598.9 799.738 594.002 803.44 L 592.26 802.97 C 590.754 794.93 601.243 776.671 606.167 769.51 C 624.913 742.734 653.404 724.368 685.532 718.351 C 690.153 717.513 696.035 716.778 700.689 716.408 C 704.498 682.538 701.058 659.474 679.481 631.73 C 663.101 610.668 632.002 591.945 607.129 611.332 C 598.205 618.287 590.588 630.256 583.39 639.163 C 577.166 646.806 570.026 653.653 562.13 659.552 C 506.046 701.993 422.18 722.873 412.135 804.541 C 404.383 867.572 440.678 901.773 501.152 907.503 C 506.239 907.946 511.342 908.176 516.449 908.191 C 517.583 922.841 525.004 935.862 536.248 945.26 C 563.948 968.414 605.277 970.036 639.674 967.475 C 680.138 965.002 710.615 954.277 739.632 925.355 C 757.113 908.358 776.609 889.286 800.062 880.967 C 807.414 878.359 830.51 882.58 839.112 882.688 C 876.424 883.154 939.476 882.692 961.866 847.058 C 894.154 845.927 822.007 829.28 772.893 779.563 C 769.085 775.709 762.507 768.978 763.779 763.168 L 765.178 762.252 C 768.109 763.173 778.538 775.27 782.964 778.681 C 823.364 809.827 875.775 820.185 925.088 828.042 C 943.199 830.928 963.054 831.722 981.602 834.106 C 981.393 839.224 981.243 845.882 979.538 850.604 C 960.078 904.495 866.778 906.967 821.907 904.906 C 820.806 904.851 819.706 904.777 818.607 904.683 C 868.029 951.8 914.695 1005.32 983.128 1026.13 C 1013.93 1035.5 995.291 1054.51 1006.48 1067.35 C 1023.81 1087.26 1086.53 1132.01 1080.29 1165.56 L 1079.22 1166.13 C 1073.02 1162.1 1070.39 1143.3 1062.77 1133.35 C 1052.9 1120.45 1046.66 1114.21 1035.22 1102.78 C 1021.93 1089.5 1001.81 1078.94 997.367 1060.55 C 995.332 1052.13 997.132 1039.25 990.078 1035.8 C 974.57 1028.21 959.177 1025.42 943.519 1016.68 C 900.996 992.952 864.18 960.323 830.26 925.685 C 824.309 919.608 811.548 906.311 807.789 899.036 C 856.55 899.551 962.684 903.621 975.566 839.709 C 957.949 836.734 938.942 835.901 921.066 833.806 C 899.721 831.266 878.655 826.768 858.135 820.367 L 857.228 823.371 C 888.858 835.014 922.381 839.236 955.883 840.737 C 960.846 840.959 967.651 839.852 969.15 845.379 C 968.655 847.611 968.221 848.464 967.118 850.411 C 945.762 888.085 879.316 889.279 841.635 888.729 C 826.845 888.512 807.738 883.734 795.155 889.681 C 781.959 895.917 769.008 905.848 758.71 915.953 C 733.179 941.006 710.221 961.723 673.869 969.237 C 634.716 977.33 578.235 979.388 542.742 957.207 C 525.818 946.631 516.088 934.187 511.473 915.159 C 475.847 910.867 438.081 903.793 417.47 870.318 C 403.102 846.736 402.467 817.097 408.041 791.27 C 426.712 704.766 527.33 693.239 578.457 635.235 C 596.32 614.969 607.282 590.009 642.541 598.477 C 664.748 603.81 680.363 620.72 692.254 639.045 C 708.455 665.882 712.519 692.435 705.268 722.946 C 703.256 722.918 701.243 722.914 699.231 722.936 C 668.844 723.31 642.699 738.713 622.007 759.892 L 623.607 761.604 C 646.604 738.785 676.308 724.386 709.225 728.062 C 733.78 704.887 752.466 691.313 786.597 686.704 C 784.206 684.611 782.276 684.503 779.151 683.798 C 777.971 671.275 785.611 654.187 793.094 644.575 C 833.071 593.222 912.692 601.35 969.106 611.517 C 987.266 614.79 1004.14 617.596 1022.16 621.447 C 1055.15 628.218 1101.84 642.994 1135.06 637.449 C 1215.13 624.082 1272.76 478.945 1201.22 424.689 C 1169.5 400.63 1124.8 411.826 1089.93 417.866 C 1129.54 345.326 1123.58 299.666 1027.32 299.979 C 1021.02 300 1007.24 301.735 1002.42 297.812 L 1002.61 296.426 C 1017.7 284.598 1071.35 288.249 1090.54 291.908 C 1076.28 196.833 986.884 198.05 911.667 207.223 C 910.248 199.754 903.894 176.033 896.382 173.631 L 896.974 173.357 C 895.855 175.147 902.901 186.956 903.315 191.204 C 904.145 199.709 903.294 207.391 902.618 215.837 C 900.025 217.606 897.18 219.189 894.5 220.899 C 853.363 247.147 797.761 282.741 779.894 330.19 C 772.705 349.28 772.137 398.778 774.031 419.05 C 777.3 454.042 795.643 486.583 822.962 508.491 C 843.431 507.592 866.72 504.801 887.509 503.291 C 924.824 500.683 962.229 499.595 999.633 500.027 C 1029.39 500.655 1049.79 504.646 1077.98 511.187 C 1090.91 514.188 1125.13 478.077 1128.6 477.853 L 1130.15 479.608 C 1134.8 494.516 1098.03 518.607 1086.73 524.808 L 1089.69 527.178 C 1100.72 536.045 1118.15 550.536 1119.77 565.502 C 1118.38 566.625 1116.41 567.29 1114.65 566.595 C 1093.23 558.159 1074.35 544.144 1061.75 525.099 C 1053.52 521.694 1043.56 519.498 1034.57 518.664 C 979.815 513.658 924.12 517.012 869.347 520.292 C 846.97 521.904 828.882 521.76 807.761 530.134 C 772.012 544.306 729.658 559.283 691.518 562.297 C 658.005 505.882 637.257 441.004 646.91 374.75 C 652.29 337.822 671.148 294.428 697.156 267.284 L 694.941 264.601 C 652.932 312.431 635.679 359.049 639.758 423.451 C 641.678 458.175 649.994 492.246 664.288 523.949 C 668.123 532.256 679.618 553.261 681.805 560.075 C 642.837 558.483 598.497 561.074 574.042 594.809 C 570.357 599.892 565.364 613.562 560.184 615.35 C 559.584 614.824 558.984 614.298 558.384 613.772 C 549.568 569.473 539.569 522.067 522.858 480.062 C 511.892 452.499 502.778 452.489 498.788 419.189 C 496.641 422.986 497.491 428.488 497.08 433.067 C 499.758 449.96 512.812 464.008 519.721 479.57 C 531.486 506.069 554.121 592.551 551.535 619.815 C 550.202 633.872 543.069 649.135 534.735 660.461 C 523.516 675.708 507.867 686.476 488.893 689.075 C 453.788 693.885 363.938 658.723 341.75 687.925 C 338.018 692.837 336.075 698.534 332.797 703.676 C 332.122 705.83 331.71 706.671 331.8 708.97 C 331.991 717.264 335.779 730.09 338.056 738.225 C 352.502 789.845 375.722 818.948 406.746 859.302 C 340.445 872.137 253.253 855.381 208.152 801.873 C 200.822 793.176 195.454 783.911 188.403 775.289 C 184.986 771.111 174.267 766.03 169.849 762.271 C 118.706 723.992 109.456 656.334 122.116 597.381 C 124.59 585.861 131.175 566.539 146.113 565.999 C 148.717 565.905 151.391 565.996 153.997 566.075 C 154.985 563.305 149.221 549.099 148.947 544.597 C 147.087 518.796 150.234 487.597 167.628 467.094 C 181.739 450.46 178.592 442.106 184.394 423.11 C 194.09 390.728 211.51 361.187 235.152 337.029 C 245.162 326.616 257.047 320.063 267.086 310.011 C 268.149 305.543 268.805 299.583 270.753 295.479 C 287.475 260.027 316.517 225.244 355.47 213.947 C 373.039 209.941 380.348 194.818 393.284 183.281 C 435.392 145.725 482.541 126.468 539.25 133.78 C 574.952 102.939 620.813 86.4167 667.981 87.4026 C 684.419 87.7741 737.581 95.9871 747.362 106.231 L 750.294 108.916 z"/><path transform="translate(0,0)" fill="rgb(218,220,220)" d="M 287.004 509.637 L 288.951 512.056 C 278.333 522.049 268.471 537.759 262.691 551.07 C 237.388 609.344 272.595 661.939 320.092 694.484 C 324.086 697.22 328.98 700.673 332.797 703.676 C 332.122 705.83 331.71 706.671 331.8 708.97 C 331.411 707.159 330.553 705.333 328.984 704.289 C 290.794 678.882 252.479 647.764 249.817 598.116 C 247.928 562.878 263.793 535.412 287.004 509.637 z"/><path transform="translate(0,0)" fill="rgb(218,220,220)" d="M 1387.22 396.017 C 1404.58 408.824 1446 439.365 1450.2 398.278 L 1452.33 398.992 C 1450.68 413.627 1451.1 418.657 1435.45 423.383 C 1416.96 419.772 1414.48 417.239 1397.48 409.385 C 1405.86 436.434 1413.52 472.125 1396.01 498.444 C 1392.84 503.223 1382.37 511.575 1381.29 516.27 C 1382.84 518.772 1391.69 520.672 1394.45 522.515 C 1404.15 529.004 1417.46 541.725 1416.66 554.264 C 1415.03 553.979 1412.61 546.259 1410.12 542.729 C 1404.49 534.769 1396.21 525.48 1387.31 521.281 C 1383.43 519.449 1379.2 519.332 1375.76 516.675 C 1377.29 512.821 1383.63 507.244 1386.55 503.781 C 1411.62 474.063 1404.21 427.982 1387.22 396.017 z"/><path transform="translate(0,0)" fill="rgb(218,220,220)" d="M 518.061 327.379 C 533.894 301.923 545.863 288.68 574.839 277.767 C 533.842 303.088 511.998 333.988 501.627 381.91 C 499.374 392.319 499.385 408.197 498.788 419.189 C 496.641 422.986 497.491 428.488 497.08 433.067 C 492.5 416.803 498.203 374.386 503.922 357.822 C 506.485 350.399 510.566 336.615 511.315 328.963 C 511.721 324.825 502.413 316.609 499.086 313.382 C 506.402 316.346 512.302 322.081 518.061 327.379 z"/><path transform="translate(0,0)" fill="rgb(255,255,255)" d="M 1096.23 512.298 C 1091.45 516.006 1078.6 520.356 1077.36 525.152 C 1078.85 528.134 1081.79 528.898 1084.43 530.873 C 1094.58 538.442 1105.23 549.072 1112.43 559.453 C 1099.81 551.763 1084.24 543.457 1074.66 532.309 C 1071.75 528.922 1070.19 525.065 1067.86 521.838 L 1070.51 517.898 C 1078.55 518.221 1088.4 514.747 1096.23 512.298 z"/><path transform="translate(0,0)" fill="rgb(255,255,255)" d="M 287.004 509.637 C 295.196 501.235 317.883 478.988 329.755 478.242 C 327.714 481.385 327.4 480.688 327.939 483.343 C 330.332 485.168 331.393 485.027 334.344 485.035 L 335.282 485.032 L 337.104 488.595 C 322.695 493.108 300.481 501.899 288.951 512.056 L 287.004 509.637 z"/><path transform="translate(0,0)" fill="rgb(181,182,183)" d="M 916.636 507.845 C 923.098 506.924 935.338 506.774 942.203 506.361 C 966.727 504.885 992.621 504.303 1017.14 506.577 C 1014.35 507.255 1012.79 507.046 1011.53 508.944 C 1014.01 510.07 1014.83 510.25 1017.51 510.902 C 1005.58 511.194 992.001 509.722 979.844 509.961 C 963.874 510.276 948.296 511.103 932.309 510.877 C 928.367 507.147 922.577 508.088 916.636 507.845 z"/><path transform="translate(0,0)" fill="url(#Gradient2)" d="M 1435.97 793.926 C 1429.01 824.544 1425.17 840.106 1411.24 869.423 L 1409.28 867.902 C 1415.86 848.151 1420.15 834.853 1421.99 813.663 C 1427.14 807.948 1431.96 800.543 1435.97 793.926 z"/><path transform="translate(0,0)" fill="rgb(218,220,220)" d="M 822.665 515.395 C 826.11 514.614 829.627 514.287 833.149 514.08 C 860.772 512.46 888.992 507.355 916.636 507.845 C 922.577 508.088 928.367 507.147 932.309 510.877 C 896.814 512.563 857.312 514.88 821.907 518.31 L 822.665 515.395 z"/><path transform="translate(0,0)" fill="url(#Gradient1)" d="M 1181.6 702.896 C 1215.03 699.066 1220.88 698.592 1253.89 687.281 L 1255.96 690.146 C 1233.08 698.013 1214.28 706.384 1189.36 708.299 L 1189.55 704.434 C 1187.44 702.544 1185.08 703.102 1181.6 702.896 z"/><path transform="translate(0,0)" fill="rgb(150,151,148)" d="M 779.151 683.798 C 815.977 681.534 852.439 685.174 882.033 710.082 C 857.388 699.232 842.205 688.845 813.857 686.077 C 806.672 685.376 790.428 687.195 786.597 686.704 C 784.206 684.611 782.276 684.503 779.151 683.798 z"/><path transform="translate(0,0)" fill="rgb(218,220,220)" d="M 1017.14 506.577 C 1042.35 508.203 1046.64 509.557 1070.51 517.898 L 1067.86 521.838 C 1057.31 514.911 1030.12 511.873 1017.51 510.902 C 1014.83 510.25 1014.01 510.07 1011.53 508.944 C 1012.79 507.046 1014.35 507.255 1017.14 506.577 z"/><path transform="translate(0,0)" fill="rgb(181,182,183)" d="M 1254.8 216.651 L 1255.6 221.311 L 1256.7 221.612 C 1255.51 234.549 1251.45 243.983 1242.77 253.751 C 1236.51 260.804 1218.76 274.148 1209.76 274.579 L 1209.27 273.522 C 1235.43 260.01 1251.98 248.211 1254.8 216.651 z"/><path transform="translate(0,0)" fill="rgb(108,107,108)" d="M 747.362 106.231 L 750.294 108.916 C 749.889 116.215 750.897 134.569 750.039 138.219 L 748.914 137.898 C 744.923 131.005 745.322 114.436 747.362 106.231 z"/><path transform="translate(0,0)" fill="rgb(181,182,183)" d="M 1391.54 897.007 C 1400.53 885.583 1402.31 878.361 1409.28 867.902 L 1411.24 869.423 C 1405.87 880.076 1401.1 889.274 1394.14 898.977 L 1391.54 897.007 z"/><path transform="translate(0,0)" fill="rgb(150,151,148)" d="M 694.941 264.601 C 703.398 255.991 709.594 250.209 719.807 243.643 C 712.859 251.898 704.814 259.646 697.156 267.284 L 694.941 264.601 z"/><path transform="translate(0,0)" fill="rgb(181,182,183)" d="M 827.586 811.155 C 837.588 814.165 848.283 817.102 858.135 820.367 L 857.228 823.371 C 845.705 819.761 837.957 817.319 827.586 811.155 z"/><path transform="translate(0,0)" fill="rgb(218,220,220)" d="M 335.282 485.032 C 338.731 482.954 351.091 483.89 355.195 484.825 L 355.251 485.348 C 349.193 486.377 343.144 487.46 337.104 488.595 L 335.282 485.032 z"/><path transform="translate(0,0)" fill="rgb(150,151,148)" d="M 1253.89 687.281 C 1259.13 685.066 1264.33 682.802 1269.67 680.856 L 1271 682.038 L 1271.55 681.667 L 1270.91 680.501 L 1272.87 680.524 C 1268.13 684.785 1261.75 687.54 1255.96 690.146 L 1253.89 687.281 z"/><path transform="translate(0,0)" fill="rgb(28,23,29)" d="M 1448.74 375.28 L 1450.76 375.203 C 1451.13 383.12 1452.32 391.312 1452.33 398.992 L 1450.2 398.278 C 1450.29 391.176 1448.81 383.357 1448.74 375.28 z"/><path transform="translate(0,0)" fill="rgb(150,151,148)" d="M 622.007 759.892 L 623.607 761.604 C 618.935 766.485 617.113 767.764 611.482 771.632 C 614.862 767.499 618.375 763.789 622.007 759.892 z"/><path transform="translate(0,0)" fill="rgb(181,182,183)" d="M 1219.51 278.06 C 1256.86 275.533 1260.61 305.824 1270.26 308.111 C 1279.35 310.263 1302.61 302.938 1314.6 311.847 C 1316.46 313.231 1316.4 313.85 1316.79 316.002 L 1316.02 316.571 L 1305.24 311.597 C 1294.46 306.914 1279.85 310.234 1269.08 313.474 C 1243.59 277.32 1238.29 282.604 1198.4 284.149 C 1205.99 281.476 1211.74 279.982 1219.51 278.06 z"/><path transform="translate(0,0)" fill="rgb(181,182,183)" d="M 440.595 301.348 C 446.993 300.111 470.584 300.411 476.158 303.98 C 469.628 305.47 461.131 303.789 454.216 303.84 C 448.5 303.882 444.21 304.522 438.575 305.312 C 432.24 306.119 410.047 312.256 407.028 311.272 C 415.096 305.64 430.775 302.742 440.595 301.348 z"/><path transform="translate(0,0)" fill="rgb(218,220,220)" d="M 223.569 771.447 C 230.82 771.112 235.64 772.212 242.609 773.957 C 234.34 776.302 229.13 776.565 220.753 776.885 C 214.415 776.133 208.725 774.992 202.487 773.776 C 209.507 772.221 216.405 771.949 223.569 771.447 z"/><path transform="translate(0,0)" fill="rgb(255,255,255)" d="M 1182.02 281.861 C 1189.54 279.733 1192.22 278.09 1199.53 279.873 L 1200.75 281.131 C 1196.88 285.835 1189.73 285.195 1184.02 285.422 L 1182.02 281.861 z"/><path transform="translate(0,0)" fill="rgb(218,220,220)" d="M 1167.78 284.22 C 1172.83 283.534 1177.04 282.912 1182.02 281.861 L 1184.02 285.422 C 1180.4 285.658 1171.76 284.6 1167.78 284.22 z"/></svg>