<svg xmlns="http://www.w3.org/2000/svg" width="1199" height="601" fill="none">
  <path fill="#FF4000" d="M1199 .922c0 159.13-63.16 311.742-175.59 424.264C910.983 537.708 758.497 600.922 599.5 600.922s-311.482-63.214-423.91-175.736C63.161 312.664 0 160.052 0 .922h262.041c0 89.574 35.554 175.48 98.84 238.818C424.167 303.079 510 338.662 599.5 338.662s175.334-35.583 238.619-98.922c63.286-63.338 98.84-149.244 98.84-238.818H1199Z"/>
  <path stroke="#000" stroke-opacity=".15" d="M261.543 1.422c.132 89.526 35.723 175.357 98.984 238.672 63.38 63.432 149.341 99.068 238.973 99.068s175.593-35.636 238.973-99.068c63.261-63.315 98.852-149.146 98.984-238.672H1198.5c-.13 158.817-63.23 311.101-175.44 423.411C910.722 537.261 758.364 600.422 599.5 600.422c-158.864 0-311.222-63.161-423.557-175.589C63.727 312.523.634 160.239.502 1.422h261.041Z"/>
</svg>
